<?xml version="1.0" encoding="utf-8"?>
<!-- Generator: Adobe Illustrator 18.0.0, SVG Export Plug-In . SVG Version: 6.00 Build 0)  -->
<!DOCTYPE svg PUBLIC "-//W3C//DTD SVG 1.1//EN" "http://www.w3.org/Graphics/SVG/1.1/DTD/svg11.dtd">
<svg version="1.1" id="Ebene_1" xmlns="http://www.w3.org/2000/svg" xmlns:xlink="http://www.w3.org/1999/xlink" x="0px" y="0px"
	 viewBox="0 0 256 256" enable-background="new 0 0 256 256" xml:space="preserve">
<g>
	<path d="M129.1,138.6c-1.1,0.4-2.1,0.7-3.1,1.1c-16.6,6.5-33.9,9.8-51.7,11.2c-5.1,0.4-10.2,0.6-15.2-1c-1.2-0.4-2.4-1.1-3.2-1.9
		c-10.1-10.3-18.6-21.8-26.9-33.5c-0.1-0.2-0.2-0.4-0.3-0.8c2.6-1,5.2-2,7.8-2.8c0.6-0.2,1.5,0.1,2.2,0.4
		c10.6,4.6,21.2,9.1,31.8,13.8c1.3,0.6,2.3,0.6,3.6,0.1c38.4-14.1,76.8-28,115.1-42.2c8.8-3.2,17.5-3.1,26.3-0.7
		c2.4,0.7,4.9,1.6,7,2.9c5.3,3.1,6.2,7.4,2.8,12.6c-3.6,5.6-8.9,8.9-15,11.1c-12.2,4.5-24.3,8.9-36.5,13.3c-1.5,0.5-2.3,1.3-2.9,2.7
		c-11.6,25-23.2,50-34.8,75.1c-1.3,2.7-3.1,4.5-6,5.5c-4.2,1.4-8.3,3-12.4,4.5c-0.7,0.2-1.7,0.3-2.3,0c-0.4-0.2-0.4-1.4-0.2-2.1
		c2.8-14.1,5.7-28.2,8.6-42.3c1.7-8.5,3.4-16.9,5.2-25.4C129,139.7,129,139.3,129.1,138.6z"/>
	<path d="M135.4,93.8c-0.8,0.4-1.4,0.6-2,0.8c-9.3,3.4-18.6,6.8-27.9,10.2c-1.4,0.5-2.3,0.4-3.4-0.5c-8.8-7.1-17.7-14-26.6-21.1
		c-0.7-0.6-1.2-1.4-1.7-2.2c0.8-0.5,1.4-1.2,2.3-1.5c4.3-1.6,8.6-3.2,12.9-4.8c2-0.7,4-0.8,6,0.1c13.1,6.1,26.3,12.2,39.4,18.3
		C134.7,93.4,134.9,93.5,135.4,93.8z"/>
</g>
</svg>
