<?xml version="1.0" encoding="utf-8"?>
<!-- Generator: Adobe Illustrator 18.0.0, SVG Export Plug-In . SVG Version: 6.00 Build 0)  -->
<!DOCTYPE svg PUBLIC "-//W3C//DTD SVG 1.1//EN" "http://www.w3.org/Graphics/SVG/1.1/DTD/svg11.dtd">
<svg version="1.1" id="Ebene_1" xmlns="http://www.w3.org/2000/svg" xmlns:xlink="http://www.w3.org/1999/xlink" x="0px" y="0px"
	 viewBox="0 0 256 256" enable-background="new 0 0 256 256" xml:space="preserve">
<g>
	<path fill="#030304" d="M125.7,236.4c-14.1,0-27.4-1.5-40.9-3.9c-9.4-1.6-10.5-3.6-10-12.9c1.9-37.7,10.4-73.9,25.7-108.4
		c6.4-14.3,6.2-27.6-2.2-41.1c-7.8-12.7-6.8-25.6,1.9-37.6c8.7-11.9,21.1-15.1,35.1-12.4c18.7,3.7,30.6,25.8,23.6,43.6
		c-1.1,2.8-2.5,5.4-4,7.9c-6.8,11.2-7.6,22.9-2.4,34.7c12,27.1,20.9,55.1,25.5,84.4c1.6,10.5,2.2,21.1,3.3,31.6
		c0.5,4.6-2.3,7-5.9,7.7c-10.9,2.3-13,3.1-24.1,4.6c-5.4,0.8-13.5,1.5-25,1.5C126,236.4,125.9,236.4,125.7,236.4z M111.6,150.7
		c-0.7,0-5.7-1.2-6.3-1.1c-2.8,5.2-7.2,18.1-8.4,27.4c-1.5,11.2-0.4,18.8,1.6,30c0.2,1.2,12.1,1.9,13.1,2c0,0-5.5-19.6-5.5-31.8
		C106.1,169.5,108.1,160.5,111.6,150.7z M110.4,37.6c-5.7,8-6.4,23.4,2.5,28.1C106.7,57.7,108.8,44,110.4,37.6z"/>
</g>
</svg>
