<?xml version="1.0" encoding="utf-8"?>
<!-- Generator: Adobe Illustrator 18.0.0, SVG Export Plug-In . SVG Version: 6.00 Build 0)  -->
<!DOCTYPE svg PUBLIC "-//W3C//DTD SVG 1.1//EN" "http://www.w3.org/Graphics/SVG/1.1/DTD/svg11.dtd">
<svg version="1.1" id="Ebene_1" xmlns="http://www.w3.org/2000/svg" xmlns:xlink="http://www.w3.org/1999/xlink" x="0px" y="0px"
	 viewBox="0 0 256 256" enable-background="new 0 0 256 256" xml:space="preserve">
<path d="M134.4,147.5c0,11.7,0,23,0,34.4c0,0.8,0.5,1.8,1.1,2.4c4.3,4.8,8.8,9.5,13,14.4c1,1.1,1.6,2.9,1.7,4.4
	c0.3,3.1,0.1,6.2,0.1,9.7c-5.3-1.9-10.3-3.7-15.4-5.5c-1.5,3.6-4.8,3.1-7.6,2.9c-2.1-0.1-5.4,0.8-6-3.1c-5.2,1.9-10.3,3.7-15.8,5.7
	c0-3.9-0.1-7.6,0.1-11.2c0-0.8,0.7-1.7,1.3-2.4c4.3-4.8,8.8-9.6,13.1-14.4c0.7-0.8,1.6-1.9,1.6-2.9c0.1-11.4,0.1-22.7,0.1-34.6
	c-1.7,0.6-3.1,1.3-4.6,1.5c-0.7,0.1-1.6-0.6-2.3-0.9c0.4-0.6,0.8-1.8,1.3-1.9c6.5-0.5,5.9-5.2,5.7-9.7c-0.1-3.4,0-6.8,0-10.7
	c-3.3,1.1-6.3,2-9,2.9c-2.4-6.3,0.7-10.5,4.9-14c3.3-2.8,4.6-6,4.2-10.3c-0.4-4.1,0.1-8.3-0.1-12.4c-0.6-11.2,1.9-22.1,3.5-33.1
	c0.8-5.3,1.7-10.5,3.1-15.8c0.6,3.4,1.2,6.7,1.7,10.1c1.4,9.3,3.2,18.5,4.2,27.9c0.7,6.7,0.6,13.6,0.2,20.4
	c-0.4,6,0.8,10.6,5.5,14.9c4.8,4.3,4.4,4.8,3.9,12.5c-3-1-6-2-9.3-3.1c0,5.8-0.1,11.4,0.1,17c0,0.8,1.7,1.7,2.7,2.4
	c1.4,1,4,0.2,4,3.1c-1.6-0.1-3.2-0.1-4.9-0.2C135.9,148,135.4,147.8,134.4,147.5z"/>
<path d="M181.4,147.5c0,11.7,0,23,0,34.4c0,0.8,0.5,1.8,1.1,2.4c4.3,4.8,8.8,9.5,13,14.4c1,1.1,1.6,2.9,1.7,4.4
	c0.3,3.1,0.1,6.2,0.1,9.7c-5.3-1.9-10.3-3.7-15.4-5.5c-1.5,3.6-4.8,3.1-7.6,2.9c-2.1-0.1-5.4,0.8-6-3.1c-5.2,1.9-10.3,3.7-15.8,5.7
	c0-3.9-0.1-7.6,0.1-11.2c0-0.8,0.7-1.7,1.3-2.4c4.3-4.8,8.8-9.6,13.1-14.4c0.7-0.8,1.6-1.9,1.6-2.9c0.1-11.4,0.1-22.7,0.1-34.6
	c-1.7,0.6-3.1,1.3-4.6,1.5c-0.7,0.1-1.6-0.6-2.3-0.9c0.4-0.6,0.8-1.8,1.3-1.9c6.5-0.5,5.9-5.2,5.7-9.7c-0.1-3.4,0-6.8,0-10.7
	c-3.3,1.1-6.3,2-9,2.9c-2.4-6.3,0.7-10.5,4.9-14c3.3-2.8,4.6-6,4.2-10.3c-0.4-4.1,0.1-8.3-0.1-12.4c-0.6-11.2,1.9-22.1,3.5-33.1
	c0.8-5.3,1.7-10.5,3.1-15.8c0.6,3.4,1.2,6.7,1.7,10.1c1.4,9.3,3.2,18.5,4.2,27.9c0.7,6.7,0.6,13.6,0.2,20.4
	c-0.4,6,0.8,10.6,5.5,14.9c4.8,4.3,4.4,4.8,3.9,12.5c-3-1-6-2-9.3-3.1c0,5.8-0.1,11.4,0.1,17c0,0.8,1.7,1.7,2.7,2.4
	c1.4,1,4,0.2,4,3.1c-1.6-0.1-3.2-0.1-4.9-0.2C182.9,148,182.4,147.8,181.4,147.5z"/>
<path d="M87.5,147.5c0,11.7,0,23,0,34.4c0,0.8,0.5,1.8,1.1,2.4c4.3,4.8,8.8,9.5,13,14.4c1,1.1,1.6,2.9,1.7,4.4
	c0.3,3.1,0.1,6.2,0.1,9.7c-5.3-1.9-10.3-3.7-15.4-5.5c-1.5,3.6-4.8,3.1-7.6,2.9c-2.1-0.1-5.4,0.8-6-3.1c-5.2,1.9-10.3,3.7-15.8,5.7
	c0-3.9-0.1-7.6,0.1-11.2c0-0.8,0.7-1.7,1.3-2.4c4.3-4.8,8.8-9.6,13.1-14.4c0.7-0.8,1.6-1.9,1.6-2.9c0.1-11.4,0.1-22.7,0.1-34.6
	c-1.7,0.6-3.1,1.3-4.6,1.5c-0.7,0.1-1.6-0.6-2.3-0.9c0.4-0.6,0.8-1.8,1.3-1.9c6.5-0.5,5.9-5.2,5.7-9.7c-0.1-3.4,0-6.8,0-10.7
	c-3.3,1.1-6.3,2-9,2.9c-2.4-6.3,0.7-10.5,4.9-14c3.3-2.8,4.6-6,4.2-10.3c-0.4-4.1,0.1-8.3-0.1-12.4c-0.6-11.2,1.9-22.1,3.5-33.1
	c0.8-5.3,1.7-10.5,3.1-15.8c0.6,3.4,1.2,6.7,1.7,10.1c1.4,9.3,3.2,18.5,4.2,27.9c0.7,6.7,0.6,13.6,0.2,20.4
	c-0.4,6,0.8,10.6,5.5,14.9c4.8,4.3,4.4,4.8,3.9,12.5c-3-1-6-2-9.3-3.1c0,5.8-0.1,11.4,0.1,17c0,0.8,1.7,1.7,2.7,2.4
	c1.4,1,4,0.2,4,3.1c-1.6-0.1-3.2-0.1-4.9-0.2C88.9,148,88.4,147.8,87.5,147.5z"/>
</svg>
