<?xml version="1.0" encoding="utf-8"?>
<!-- Generator: Adobe Illustrator 18.0.0, SVG Export Plug-In . SVG Version: 6.00 Build 0)  -->
<!DOCTYPE svg PUBLIC "-//W3C//DTD SVG 1.1//EN" "http://www.w3.org/Graphics/SVG/1.1/DTD/svg11.dtd">
<svg version="1.1" id="Ebene_1" xmlns="http://www.w3.org/2000/svg" xmlns:xlink="http://www.w3.org/1999/xlink" x="0px" y="0px"
	 viewBox="0 0 256 256" enable-background="new 0 0 256 256" xml:space="preserve">
<g>
	<path fill="#030304" d="M103.4,52.3c-40.1,13.6-61.6,57.1-48,97.2c7.7,22.6,25.4,40.3,48,48v5.8c-25.6-8.1-45.7-28.1-53.7-53.7
		c-13.6-43.3,10.4-89.4,53.7-103V52.3z"/>
	<polygon fill="#030304" points="119.8,112.8 128,120.6 136.2,112.8 136.2,120.6 130.7,126.1 130.7,196.1 125.3,196.1 125.3,126.1 
		119.8,120.6 	"/>
	<polygon fill="#030304" points="119.8,112.8 119.8,120.6 125.3,126.1 125.3,196.1 130.7,196.1 130.7,126.1 136.2,120.6 
		136.2,112.8 128,120.6 	"/>
	<rect x="108.8" y="15.4" fill="#030304" width="5.5" height="219"/>
	<rect x="108.8" y="15.4" fill="#030304" width="5.5" height="219"/>
	<rect x="141.7" y="15.4" fill="#030304" width="5.5" height="219"/>
	<rect x="141.7" y="15.4" fill="#030304" width="5.5" height="219"/>
	<polygon fill="#030304" points="180.2,76.6 176.4,72.7 152.6,96.4 152.6,104.2 	"/>
	<polygon fill="#030304" points="180.2,76.6 152.6,104.2 152.6,96.4 176.4,72.7 	"/>
	<path fill="#030304" d="M152.6,203.3v-5.8c40.1-13.6,61.6-57.1,48-97.2c-7.7-22.6-25.4-40.3-48-48v-5.8
		c25.6,8.1,45.7,28.1,53.7,53.7C220,143.6,195.9,189.7,152.6,203.3z"/>
	<path fill="#030304" d="M152.6,203.3c43.3-13.6,67.3-59.7,53.7-103c-8.1-25.6-28.1-45.7-53.7-53.7v5.8c22.6,7.7,40.3,25.4,48,48
		c13.6,40.1-7.9,83.6-48,97.2V203.3z"/>
	<polygon fill="#030304" points="103.4,104.2 103.4,96.4 79.6,72.7 75.8,76.6 	"/>
	<polygon fill="#030304" points="103.4,104.2 75.8,76.6 79.6,72.7 103.4,96.4 	"/>
	<path fill="#030304" d="M136.2,43.2v5.5c-5.5-0.6-11-0.6-16.4,0v-5.5C125.2,42.7,130.8,42.7,136.2,43.2z"/>
	<path fill="#030304" d="M136.2,43.2c-5.5-0.5-11-0.5-16.4,0v5.5c5.5-0.6,11-0.6,16.4,0V43.2z"/>
	<path fill="#030304" d="M103.4,52.3v-5.8c-43.3,13.6-67.3,59.7-53.7,103c8.1,25.6,28.1,45.7,53.7,53.7v-5.8
		c-22.6-7.7-40.3-25.4-48-48C41.8,109.5,63.3,65.9,103.4,52.3z"/>
</g>
</svg>
