<?xml version="1.0" encoding="utf-8"?>
<!-- Generator: Adobe Illustrator 18.0.0, SVG Export Plug-In . SVG Version: 6.00 Build 0)  -->
<!DOCTYPE svg PUBLIC "-//W3C//DTD SVG 1.1//EN" "http://www.w3.org/Graphics/SVG/1.1/DTD/svg11.dtd">
<svg version="1.1" id="Ebene_1" xmlns="http://www.w3.org/2000/svg" xmlns:xlink="http://www.w3.org/1999/xlink" x="0px" y="0px"
	 viewBox="0 0 256 256" enable-background="new 0 0 256 256" xml:space="preserve">
<g>
	<path d="M128.1,24.6c9.6-0.1,19.1,0.6,28,4.6c19.3,8.4,31.7,29.5,28.9,49.9c-0.5,3.8-2,7.6-3.5,11.2c-2.6,6.3-2.4,12.2,1.5,17.9
		c4.5,6.6,4,13.3-1.5,18.5c-2.5,2.4-5.8,2.8-9,2.8c-5.9-0.1-9,1.9-10.6,7.6c-0.8,2.8-1.4,5.6-2,8.4c-0.7,3.4-2.5,5.6-5.8,6.8
		c-17.4,6.4-34.8,6.4-52.2,0c-3.2-1.2-5.1-3.2-5.8-6.5c-0.7-3.1-1.5-6.1-2.4-9.1c-1.5-5.4-5-7.4-10.6-7.3c-2,0-4.3-0.2-6.1-1
		c-7.8-3.4-9-13.6-4.7-19.5c2-2.7,3.6-5.7,3.6-9.1c0-2.8,0.1-5.9-1.2-8.2c-9.9-17.3-2.2-45.9,18.1-58.7c9.7-6.1,20.3-8.2,31.5-8.3
		C125.6,24.6,126.9,24.6,128.1,24.6z M156.2,89.5c-0.1-0.2-0.1-0.5-0.2-0.7c-4.8,1.1-9.7,2-14.4,3.4c-3.1,0.9-5.4,3.3-6.3,6.5
		c-1.8,6,1.6,14.6,7.2,17.5c5.9,3.1,12.3,4.1,18.8,2.1c4.4-1.4,7.9-4.1,9.4-8.7C174.3,98.7,167.7,89.4,156.2,89.5z M100.2,88.8
		c-3.3,0.9-6.9,1-9.6,2.7c-8.3,5.3-8,19.9,0.3,25.2c4.5,2.9,9.4,3,14.4,2.4c9.2-1.1,15.3-7.3,15.7-15.8c0.3-5.5-1.7-9.3-6.9-11.1
		C109.7,90.6,104.9,89.9,100.2,88.8z M115.9,134.7c0.6,1.1,1.1,3.1,2.2,3.5c1.8,0.6,4.5,1,5.9,0c2.9-2,4.9-1.8,7.8-0.1
		c1.6,1,4.6,0.8,6.3-0.1c1.1-0.6,2-3.8,1.4-5.2c-2.2-5.2-4.8-10.2-7.7-15c-1.6-2.5-6.9-1.7-8.5,1.1c-2.2,3.7-4.1,7.5-6,11.3
		C116.6,131.4,116.4,132.8,115.9,134.7z"/>
	<path d="M105.5,189.7c-0.7-0.4-0.9-0.6-1.1-0.6c-12.5-4-24.9-8.1-37.5-11.8c-3.3-1-6.9-0.5-10.4-0.6c-4.4-0.1-8.8-0.3-12.8-2.3
		c-5.9-2.9-7.8-8.2-4.8-14c0.6-1.1,1.8-2.2,2.9-2.7c2.8-1.2,4.5-3.2,5.2-6.1c0.2-0.8,0.5-1.7,0.9-2.5c1.9-4.4,6.1-6,10.4-3.7
		c1.8,1,3.5,2.4,4.8,4c4.5,6,10,10.6,17.1,13.4c15.4,5.9,30.8,12,46.2,18c1,0.4,2.5,0.4,3.5,0c15.7-6.1,31.4-12.3,47.2-18.4
		c6.5-2.5,11.4-7,15.7-12.3c1.5-1.9,3.4-3.6,5.5-4.7c4-2.2,8.2-0.5,10,3.7c0.5,1.2,0.6,2.7,1.3,3.7c1.1,1.7,2.4,3.6,4,4.5
		c6,3.3,7.1,11.6,1.4,15.6c-2.5,1.8-5.8,2.8-8.9,3.6c-2.3,0.6-4.9,0.6-7.3,0.4c-8.5-0.6-16.4,2.1-24.3,4.7
		c-7.8,2.6-15.5,5.3-23.3,7.9c0.1,0.4,0.1,0.7,0.2,0.7c11.2,3.8,22.1,9.2,34.1,10.2c6,0.5,12.1-0.9,18.2-1.3
		c2.2-0.1,4.4-0.3,6.5,0.1c4.9,0.9,8.6,5.4,8.2,10.3c-0.1,1.7-1.2,3.5-2.4,4.8c-2.6,2.8-4.6,5.8-5.7,9.5c-2.5,8.1-11.5,10.5-17.9,5
		c-1.1-0.9-2.1-1.8-3.1-2.8c-4.3-4.3-9.2-7.6-14.8-9.8c-14.9-5.8-29.8-11.7-44.7-17.5c-1-0.4-2.5-0.4-3.5-0.1
		c-15.1,5.9-30.1,11.8-45.2,17.7c-5.4,2.1-10.1,5.3-14.2,9.3c-1.2,1.2-2.4,2.3-3.7,3.4c-6.2,5-14.8,2.7-17.4-4.9
		c-1.2-3.6-2.7-6.7-5.4-9.4c-5-5-2.5-13.9,4.5-15.4c3.2-0.7,6.9-0.6,10.1,0.1c10.3,2.3,20.2,1.2,30-2.3
		C91.6,194.5,98.3,192.2,105.5,189.7z"/>
</g>
</svg>
