<?xml version="1.0" encoding="utf-8"?>
<!-- Generator: Adobe Illustrator 18.0.0, SVG Export Plug-In . SVG Version: 6.00 Build 0)  -->
<!DOCTYPE svg PUBLIC "-//W3C//DTD SVG 1.1//EN" "http://www.w3.org/Graphics/SVG/1.1/DTD/svg11.dtd">
<svg version="1.1" id="Ebene_1" xmlns="http://www.w3.org/2000/svg" xmlns:xlink="http://www.w3.org/1999/xlink" x="0px" y="0px"
	 viewBox="0 0 256 256" enable-background="new 0 0 256 256" xml:space="preserve">
<g>
	<defs>
		<rect id="SVGID_13_" x="17.2" y="69.2" width="221.7" height="132.2"/>
	</defs>
	<clipPath id="SVGID_2_">
		<use xlink:href="#SVGID_13_"  overflow="visible"/>
	</clipPath>
	<path clip-path="url(#SVGID_2_)" d="M127.6,158.8c-24.9,0-49.2-0.2-71.6,12.1c10.3-7.2,21.6-13.2,33.8-15.4
		c25.4-4.6,50.9-4.6,76.4,0c11.1,2,21.6,7.4,31.3,13.3c1.1,0.7,1.1,0.7,2.2,2.7C177.2,158.2,152.6,158.8,127.6,158.8 M117.3,101.6
		l9.6-19.4l9.6,19.4l21.4,3.1l-15.5,15.1l3.6,21.3L126.9,131l-19.1,10.1l3.6-21.3l-15.5-15.1L117.3,101.6z M237.6,133.2
		c-7.8-10.5-15.4-21.2-23-31.8c-0.7-0.9-1.6-1.7-1.6-3c-0.5-0.6-0.9-1.1-1.4-1.7c-0.2-0.2-0.4-0.3-0.5-0.5c-1.3-1.8-2.6-3.4-4.9-4
		c-25.3-7.5-50.6-15-75.9-22.6c-1.5-0.5-2.9-0.5-4.4-0.1c-25.6,7.7-51.2,15.3-76.8,23c-1,0.3-1.7,0.6-2.4,1.6
		c-9.5,13.3-19,26.6-28.7,39.8c-1.4,1.9-1.1,2.8,0.4,4.3c9.6,9.7,18.9,19.8,28.8,29.3c3.9,3.8,5.4,7.2,3.1,12.2
		c-1.4,3-1.2,5.8,2.3,7.3c0.2,0.2,0.5,0.4,0.7,0.6l0,0c10.6,5.1,21.7,8.7,33.3,10.6c18.5,3,37.1,3.9,55.7,2.8
		c15.1-0.9,30-2.6,44.5-7.1c6.2-1.9,12.2-4.4,17.6-8c1.7-1.1,2.4-2.3,1.6-4.3c-0.5-1.2-0.4-2.6-1-3.7c-2.2-3.9-0.4-6.4,2.4-9.1
		c10-10,19.8-20.2,29.8-30.2C239.4,136.7,239.2,135.3,237.6,133.2"/>
</g>
</svg>
