<?xml version="1.0" encoding="utf-8"?>
<!-- Generator: Adobe Illustrator 18.0.0, SVG Export Plug-In . SVG Version: 6.00 Build 0)  -->
<!DOCTYPE svg PUBLIC "-//W3C//DTD SVG 1.1//EN" "http://www.w3.org/Graphics/SVG/1.1/DTD/svg11.dtd">
<svg version="1.1" id="Ebene_1" xmlns="http://www.w3.org/2000/svg" xmlns:xlink="http://www.w3.org/1999/xlink" x="0px" y="0px"
	 viewBox="0 0 256 256" enable-background="new 0 0 256 256" xml:space="preserve">
<g>
	<polygon points="18.3,122.6 18.2,139.1 32.6,122.5 	"/>
	<g>
		<g>
			<path d="M206.7,147.8h-46.4l35-11.9l-9.9-13.5H72.1l-15,17l76.8-0.2l-30.8,8.6H47.8l-29.3,34.5l218.1,0.5L206.7,147.8z
				 M50.3,167.8l85-23.7l36.3-10.1l-37.7,0.1l-65.5,0.2l6-6.8h108.6l4.2,5.8l-68.5,23.3l-29.3,9.9h30.9h81.8l7,8.5l-164.6,0
				L50.3,167.8z"/>
		</g>
	</g>
	<polygon points="54.6,122.5 40.1,139.1 52.5,139.1 67.1,122.5 	"/>
	<polygon points="37.4,122.5 22.8,139.1 35.2,139.1 49.9,122.5 	"/>
	<g>
		<path d="M40.3,200.1c0-5,4-9,9-9c5,0,9,4,9,9c0,5-4,9-9,9C44.3,209,40.3,205,40.3,200.1 M70.7,200.1c0-5,4-9,9-9c5,0,9,4,9,9
			c0,5-4,9-9,9C74.7,209,70.7,205,70.7,200.1 M100.5,200.1c0-5,4-9,9-9c5,0,9,4,9,9c0,5-4,9-9,9C104.5,209,100.5,205,100.5,200.1
			 M132.2,200.1c0-5,4-9,9-9c5,0,9,4,9,9c0,5-4,9-9,9C136.2,209,132.2,205,132.2,200.1 M163.8,200.1c0-5,4-9,9-9c5,0,9,4,9,9
			c0,5-4,9-9,9C167.9,209,163.8,205,163.8,200.1 M194.9,200.1c0-5,4-9,9-9c5,0,9,4,9,9c0,5-4,9-9,9C198.9,209,194.9,205,194.9,200.1
			 M18.5,187L39,213.5h176.5l21.1-26.8L18.5,187z"/>
	</g>
</g>
</svg>
