<?xml version="1.0" encoding="utf-8"?>
<!-- Generator: Adobe Illustrator 18.0.0, SVG Export Plug-In . SVG Version: 6.00 Build 0)  -->
<!DOCTYPE svg PUBLIC "-//W3C//DTD SVG 1.1//EN" "http://www.w3.org/Graphics/SVG/1.1/DTD/svg11.dtd">
<svg version="1.1" id="Ebene_1" xmlns="http://www.w3.org/2000/svg" xmlns:xlink="http://www.w3.org/1999/xlink" x="0px" y="0px"
	 viewBox="0 0 256 256" enable-background="new 0 0 256 256" xml:space="preserve">
<path d="M114.5,181.2l-3.4-1.3c0.3-2.5,0.2-5.1-0.3-7.6l3.3-1.5c2.1-1,3-3.4,2-5.5l-1.9-4.2c-1-2.1-3.4-3-5.5-2l-3.3,1.5
	c-1.6-2-3.5-3.7-5.6-5.2l1.3-3.4c0.8-2.1-0.3-4.5-2.4-5.3l-4.3-1.6c-2.1-0.8-4.5,0.4-5.3,2.4l-1.3,3.4c-2.5-0.3-5.1-0.2-7.6,0.3
	l-1.5-3.3c-1-2.1-3.4-3-5.5-2l-4.2,1.9c-2.1,1-3,3.4-2,5.5l1.5,3.3c-2,1.6-3.7,3.5-5.2,5.6l-3.4-1.3c-2.1-0.8-4.5,0.4-5.3,2.4
	l-1.6,4.3c-0.4,1-0.3,2.2,0.1,3.2c0.5,1,1.3,1.8,2.3,2.1l3.4,1.3c-0.3,2.5-0.2,5.1,0.3,7.6l-3.3,1.5c-2.1,1-3,3.4-2,5.5l1.9,4.2
	c1,2.1,3.4,3,5.5,2l3.3-1.5c1.6,2,3.5,3.7,5.6,5.2l-1.3,3.4c-0.4,1-0.3,2.2,0.1,3.2c0.5,1,1.3,1.8,2.3,2.2l4.3,1.6
	c1,0.4,2.2,0.3,3.2-0.1c1-0.5,1.8-1.3,2.1-2.3l1.3-3.4c2.5,0.3,5.1,0.2,7.6-0.3l1.5,3.3c1,2.1,3.4,3,5.5,2l4.2-1.9
	c2.1-1,3-3.4,2-5.5l-1.5-3.3c2-1.6,3.7-3.5,5.2-5.6l3.4,1.3c1,0.4,2.2,0.3,3.2-0.1c1-0.5,1.8-1.3,2.1-2.3l1.6-4.3
	C117.8,184.4,116.7,182,114.5,181.2z M91.8,192c-2.2,1-4.5,1.5-6.8,1.5c-6.4,0-12.2-3.7-14.8-9.5c-3.8-8.2-0.2-17.9,8-21.7
	c2.2-1,4.5-1.5,6.8-1.5c6.4,0,12.2,3.7,14.8,9.5C103.6,178.5,100,188.3,91.8,192z"/>
<path d="M155.4,193.1l-1.9-0.7c0.2-1.4,0.1-2.8-0.2-4.2l1.8-0.9c1.2-0.5,1.7-1.9,1.1-3.1l-1.1-2.3c-0.5-1.2-1.9-1.7-3.1-1.1
	l-1.8,0.9c-0.9-1.1-2-2.1-3.1-2.9l0.7-1.9c0.4-1.2-0.2-2.5-1.4-3l-2.4-0.9c-1.2-0.4-2.5,0.2-3,1.4l-0.7,1.9
	c-1.4-0.1-2.8-0.1-4.2,0.2l-0.8-1.8c-0.5-1.2-1.9-1.7-3.1-1.1l-2.3,1.1c-1.2,0.5-1.7,1.9-1.1,3.1l0.9,1.8c-1.1,0.9-2.1,2-2.9,3.1
	l-1.9-0.7c-1.1-0.4-2.5,0.2-3,1.4l-0.9,2.4c-0.2,0.6-0.2,1.2,0.1,1.8c0.3,0.6,0.7,1,1.3,1.2l1.9,0.7c-0.2,1.4-0.1,2.8,0.2,4.2
	l-1.8,0.8c-1.2,0.5-1.7,1.9-1.1,3.1l1.1,2.3c0.5,1.2,1.9,1.7,3.1,1.1l1.8-0.8c0.9,1.1,2,2.1,3.1,2.9l-0.7,1.9
	c-0.2,0.6-0.2,1.2,0.1,1.8c0.3,0.6,0.7,1,1.3,1.2l2.4,0.9c0.6,0.2,1.2,0.2,1.8-0.1c0.6-0.3,1-0.7,1.2-1.3l0.7-1.9
	c1.4,0.2,2.8,0.1,4.2-0.2l0.8,1.8c0.5,1.2,1.9,1.7,3.1,1.1l2.3-1.1c1.2-0.5,1.7-1.9,1.1-3.1l-0.8-1.8c1.1-0.9,2.1-1.9,2.9-3.1
	l1.9,0.7c0.6,0.2,1.2,0.2,1.8-0.1c0.6-0.3,1-0.7,1.2-1.3l0.9-2.4C157.2,194.8,156.6,193.5,155.4,193.1z M142.8,199.1
	c-1.2,0.6-2.5,0.8-3.8,0.8c-3.5,0-6.8-2.1-8.3-5.3c-2.1-4.6-0.1-10,4.5-12.1c1.2-0.6,2.5-0.8,3.8-0.8c3.5,0,6.8,2.1,8.3,5.3
	C149.3,191.6,147.3,197,142.8,199.1z"/>
<path d="M198.7,120.4l-5.8-2.1c0.5-4.2,0.3-8.5-0.5-12.8l5.6-2.6c3.5-1.6,5-5.7,3.4-9.2l-3.3-7.1c-1.6-3.5-5.7-5-9.2-3.4l-5.6,2.6
	c-2.7-3.4-5.9-6.3-9.4-8.7l2.1-5.8c1.3-3.6-0.5-7.6-4.1-8.9l-7.3-2.7c-3.5-1.3-7.6,0.6-8.9,4.1l-2.1,5.8c-4.2-0.5-8.5-0.3-12.8,0.5
	l-2.6-5.6c-1.6-3.5-5.7-5-9.2-3.4l-7.1,3.3c-3.5,1.6-5,5.7-3.4,9.2l2.6,5.6c-3.4,2.7-6.3,5.9-8.7,9.4l-5.8-2.1
	c-3.5-1.3-7.6,0.6-8.9,4.1l-2.7,7.3c-0.6,1.7-0.6,3.6,0.2,5.3c0.8,1.7,2.2,3,3.9,3.6l5.8,2.1c-0.5,4.2-0.3,8.5,0.5,12.8l-5.6,2.6
	c-3.5,1.6-5,5.7-3.4,9.2l3.3,7.1c1.6,3.5,5.7,5,9.2,3.4l5.6-2.6c2.7,3.4,5.9,6.3,9.4,8.7l-2.1,5.8c-0.6,1.7-0.6,3.6,0.2,5.3
	c0.8,1.7,2.2,3,3.9,3.6l7.3,2.7c1.7,0.6,3.6,0.6,5.3-0.2c1.7-0.8,3-2.2,3.6-3.9l2.1-5.8c4.2,0.5,8.5,0.3,12.8-0.5l2.6,5.6
	c1.6,3.5,5.7,5,9.2,3.4l7.1-3.3c3.5-1.6,5-5.7,3.4-9.2l-2.6-5.6c3.4-2.7,6.3-5.9,8.7-9.4l5.8,2.1c1.7,0.6,3.6,0.6,5.3-0.2
	c1.7-0.8,3-2.2,3.6-3.9l2.7-7.3C204.2,125.7,202.3,121.7,198.7,120.4z M160.5,138.5c-3.6,1.7-7.5,2.5-11.5,2.5
	c-10.7,0-20.5-6.3-25-16c-6.3-13.8-0.3-30.1,13.5-36.4c3.6-1.7,7.5-2.5,11.5-2.5c10.7,0,20.5,6.3,25,16
	C180.3,115.8,174.3,132.2,160.5,138.5z"/>
</svg>
