<?xml version="1.0" encoding="utf-8"?>
<!-- Generator: Adobe Illustrator 18.0.0, SVG Export Plug-In . SVG Version: 6.00 Build 0)  -->
<!DOCTYPE svg PUBLIC "-//W3C//DTD SVG 1.1//EN" "http://www.w3.org/Graphics/SVG/1.1/DTD/svg11.dtd">
<svg version="1.1" id="Ebene_1" xmlns="http://www.w3.org/2000/svg" xmlns:xlink="http://www.w3.org/1999/xlink" x="0px" y="0px"
	 viewBox="0 0 256 256" enable-background="new 0 0 256 256" xml:space="preserve">
<g>
	<path d="M64,212.8c-8.1,0-16.2,0-24.3,0c-3.7,0-4.2-0.8-3.1-4.2c2.6-8.1,5.4-16.1,7.8-24.2c1-3.2,2.7-4.6,6.2-4.6
		c9,0.2,18,0.1,27,0c3,0,4.7,1.1,5.6,4c2.6,8.4,5.5,16.7,8.1,25c1,3.1,0.3,3.9-2.9,3.9C80.4,212.9,72.2,212.9,64,212.8L64,212.8z
		 M38.1,208.3c0.2,0.1,0.4,0.2,0.6,0.2c0.5-0.8,1-1.7,1.4-2.5c2.6-5.6,5.5-11.2,7.7-17c1.7-4.4,4.5-5.9,9-6
		c6.8-0.1,13.6-0.9,20.3-1.4c-9.2-0.6-18.4-0.7-27.5-0.4c-1.3,0-3.1,2-3.7,3.5c-1.5,3.4-2.3,6.9-3.5,10.4
		C41,199.5,39.5,203.9,38.1,208.3z"/>
	<path d="M127.9,212.8c-8.1,0-16.2,0-24.3,0c-3.5,0-4.1-0.8-3-4c2.7-8.3,5.5-16.7,8.2-25c0.8-2.6,2.3-3.8,5.1-3.8
		c9.4,0.1,18.8,0.1,28.2,0c2.8,0,4.3,1.2,5.1,3.8c2.6,8.4,5.5,16.7,8.2,25c1.1,3.2,0.5,4-3,4C144.2,212.9,136.1,212.8,127.9,212.8z
		 M101.6,209.6c0.2,0.1,0.4,0.2,0.5,0.3c3.3-7,6.8-13.9,9.6-21.1c1.7-4.4,4.5-5.7,8.8-5.8c6.8-0.2,13.6-0.9,21.1-1.4
		c-1-0.3-1.3-0.5-1.6-0.5c-8.7,0-17.4-0.1-26.1-0.1c-2.2,0-3.6,1.3-4.2,3.3C107.1,192.8,104.4,201.2,101.6,209.6z"/>
	<path d="M191.9,212.8c-8.1,0-16.2,0-24.2,0c-3.5,0-4.1-0.8-3-4.1c2.7-8.3,5.5-16.7,8.2-25c0.8-2.6,2.3-3.8,5.1-3.8
		c9.3,0.1,18.6,0.1,27.9,0c2.9,0,4.5,1,5.4,3.8c2.6,8.4,5.5,16.7,8.2,25c1,3.2,0.5,4-3,4.1C208.2,212.9,200.1,212.8,191.9,212.8z
		 M204.9,181.6c0-0.1,0-0.2,0-0.4c-0.5-0.1-0.9-0.2-1.4-0.2c-8.4,0-16.8,0-25.2-0.1c-2.5,0-3.9,1.4-4.7,3.7
		c-1.6,4.9-3.1,9.7-4.7,14.6c-1.1,3.5-2.3,7-3.4,10.4c3.8-6.8,7.4-13.8,10.3-20.9c1.6-4.1,4.1-5.5,8.3-5.7
		C191.1,182.8,198,182.1,204.9,181.6z"/>
	<path d="M95.8,171.7c-8.1,0-16.2,0-24.3,0c-3.3,0-3.9-0.6-2.9-3.8c2.7-8.8,5.5-17.5,8.6-26.1c0.5-1.3,2.7-2.8,4.1-2.8
		c9.7-0.2,19.5-0.1,29.2-0.1c2.4,0,3.8,1.2,4.5,3.4c2.1,6.5,4.2,13,6.2,19.5c0.7,2.2,1.4,4.4,2.2,6.6c0.9,2.5-0.2,3.4-2.6,3.4
		C112.6,171.7,104.2,171.8,95.8,171.7z M70.5,165.6c0.3,0.2,0.7,0.3,1,0.5c2.3-5,4.7-10.1,7-15.1c4-8.6,4-8.6,13.5-9.1
		c5.9-0.3,11.8-0.9,17.6-1.4c-9.2-0.6-18.4-0.7-27.6-0.5c-1.3,0-3.3,1.4-3.7,2.6C75.5,150.1,73.1,157.9,70.5,165.6z"/>
	<path d="M160.2,171.8c-8.2,0-16.4,0-24.6,0c-3.6,0-4.1-0.6-3-3.9c2.7-8.5,5.5-17,8.3-25.6c0.8-2.4,2.4-3.4,4.8-3.4
		c9.4,0,18.8,0,28.3,0c2.6,0,4.2,1,5,3.5c2.8,8.6,5.6,17.2,8.4,25.8c0.9,2.7,0.3,3.5-2.6,3.5C176.6,171.8,168.4,171.8,160.2,171.8z
		 M173.5,140.5c0-0.2,0-0.4,0-0.6c-9.2,0-18.4-0.1-27.6,0.2c-1.4,0-3.4,1.9-4,3.4c-1.7,3.9-2.9,8.1-4.2,12.1
		c-1.1,3.4-2.1,6.9-3.2,10.3c1-0.3,1.4-0.9,1.7-1.5c2.8-6.1,5.7-12.2,8.4-18.4c1-2.3,2.4-3.5,5-3.7
		C157.6,141.8,165.6,141.1,173.5,140.5z"/>
	<path d="M127.7,130.6c-8.2,0-16.4-0.1-24.5,0c-2.8,0-3.4-1-2.6-3.5c2.9-8.7,5.7-17.4,8.5-26.2c0.7-2.1,2.2-3.1,4.4-3.1
		c9.7,0,19.4-0.1,29.1,0c2.3,0,3.8,1.2,4.5,3.4c2.7,8.5,5.6,17,8.4,25.6c1,3.2,0.5,3.8-2.9,3.8C144.3,130.6,136,130.6,127.7,130.6
		L127.7,130.6z M141.5,99.4c0-0.2,0-0.4,0-0.6c-9.1,0-18.2,0-27.3,0c-2.6,0-4,1.7-4.7,4.1c-2.3,7.3-4.7,14.6-7,21.8
		c-0.2,0.5-0.2,1.1-0.3,1.7c3.9-7.2,7.3-14.5,10.6-21.8c1-2.2,2.4-3.2,4.9-3.4C125.7,100.7,133.6,100,141.5,99.4z"/>
</g>
</svg>
