<?xml version="1.0" encoding="utf-8"?>
<!-- Generator: Adobe Illustrator 18.0.0, SVG Export Plug-In . SVG Version: 6.00 Build 0)  -->
<!DOCTYPE svg PUBLIC "-//W3C//DTD SVG 1.1//EN" "http://www.w3.org/Graphics/SVG/1.1/DTD/svg11.dtd">
<svg version="1.1" id="Ebene_1" xmlns="http://www.w3.org/2000/svg" xmlns:xlink="http://www.w3.org/1999/xlink" x="0px" y="0px"
	 viewBox="0 0 256 256" enable-background="new 0 0 256 256" xml:space="preserve">
<g>
	<polygon points="60.6,35.3 19,92.6 19,163.4 60.6,220.7 128,242.6 195.4,220.7 237,163.4 237,92.6 195.4,35.3 128,13.4 	"/>
	<g>
		<defs>
			<rect id="SVGID_1_" x="17" y="11.3" width="222.1" height="233.3"/>
		</defs>
		<clipPath id="SVGID_2_">
			<use xlink:href="#SVGID_1_"  overflow="visible"/>
		</clipPath>
		
			<polygon clip-path="url(#SVGID_2_)" fill="none" stroke="#FFFFFF" stroke-width="4.0439" stroke-linecap="round" stroke-linejoin="round" points="
			60.6,35.3 19,92.6 19,163.4 60.6,220.7 128,242.6 195.4,220.7 237,163.4 237,92.6 195.4,35.3 128,13.4 		"/>
	</g>
	<polygon points="60.6,35.3 20.7,90.2 54.6,101.1 125.1,49.9 125.1,14.3 	"/>
	<g>
		<defs>
			<rect id="SVGID_3_" x="17" y="11.3" width="222.1" height="233.3"/>
		</defs>
		<clipPath id="SVGID_4_">
			<use xlink:href="#SVGID_3_"  overflow="visible"/>
		</clipPath>
		
			<polygon clip-path="url(#SVGID_4_)" fill="none" stroke="#FFFFFF" stroke-width="4.0439" stroke-linecap="round" stroke-linejoin="round" points="
			125.1,14.3 60.6,35.3 20.7,90.1 54.6,101.1 125.1,49.9 		"/>
	</g>
	<polygon points="84.4,192.9 63.5,221.7 128,242.6 192.5,221.7 171.6,192.9 	"/>
	<g>
		<defs>
			<rect id="SVGID_5_" x="17" y="11.3" width="222.1" height="233.3"/>
		</defs>
		<clipPath id="SVGID_6_">
			<use xlink:href="#SVGID_5_"  overflow="visible"/>
		</clipPath>
		
			<polygon clip-path="url(#SVGID_6_)" fill="none" stroke="#FFFFFF" stroke-width="4.0439" stroke-linecap="round" stroke-linejoin="round" points="
			63.5,221.7 128,242.6 192.5,221.7 171.6,192.9 84.4,192.9 		"/>
	</g>
	<polygon points="130.9,49.9 201.4,101.1 235.2,90.1 195.4,35.3 130.9,14.3 	"/>
	<g>
		<defs>
			<rect id="SVGID_7_" x="17" y="11.3" width="222.1" height="233.3"/>
		</defs>
		<clipPath id="SVGID_8_">
			<use xlink:href="#SVGID_7_"  overflow="visible"/>
		</clipPath>
		
			<polygon clip-path="url(#SVGID_8_)" fill="none" stroke="#FFFFFF" stroke-width="4.0439" stroke-linecap="round" stroke-linejoin="round" points="
			235.2,90.1 195.4,35.3 130.9,14.3 130.9,49.9 201.4,101.1 		"/>
	</g>
	<polygon points="203.2,106.6 176.2,189.5 197.1,218.3 237,163.4 237,95.6 	"/>
	<g>
		<defs>
			<rect id="SVGID_9_" x="17" y="11.3" width="222.1" height="233.3"/>
		</defs>
		<clipPath id="SVGID_10_">
			<use xlink:href="#SVGID_9_"  overflow="visible"/>
		</clipPath>
		
			<polygon clip-path="url(#SVGID_10_)" fill="none" stroke="#FFFFFF" stroke-width="4.0439" stroke-linecap="round" stroke-linejoin="round" points="
			237,95.6 237,163.4 197.1,218.3 176.2,189.5 203.2,106.6 		"/>
	</g>
	<polygon points="19,163.4 58.8,218.3 79.8,189.5 52.8,106.6 19,95.6 	"/>
	<g>
		<defs>
			<rect id="SVGID_11_" x="17" y="11.3" width="222.1" height="233.3"/>
		</defs>
		<clipPath id="SVGID_12_">
			<use xlink:href="#SVGID_11_"  overflow="visible"/>
		</clipPath>
		
			<polygon clip-path="url(#SVGID_12_)" fill="none" stroke="#FFFFFF" stroke-width="4.0439" stroke-linecap="round" stroke-linejoin="round" points="
			19,95.6 19,163.4 58.8,218.3 79.8,189.5 52.8,106.6 		"/>
	</g>
	<polygon fill="#FFFFFF" stroke="#000000" stroke-width="1.205" stroke-miterlimit="10" points="168,182.6 192.8,106.5 128,59.4 
		63.2,106.5 88,182.6 	"/>
</g>
</svg>
