<?xml version="1.0" encoding="utf-8"?>
<!-- Generator: Adobe Illustrator 18.0.0, SVG Export Plug-In . SVG Version: 6.00 Build 0)  -->
<!DOCTYPE svg PUBLIC "-//W3C//DTD SVG 1.1//EN" "http://www.w3.org/Graphics/SVG/1.1/DTD/svg11.dtd">
<svg version="1.1" id="Ebene_1" xmlns="http://www.w3.org/2000/svg" xmlns:xlink="http://www.w3.org/1999/xlink" x="0px" y="0px"
	 viewBox="0 0 256 256" enable-background="new 0 0 256 256" xml:space="preserve">
<g>
	<defs>
		<rect id="SVGID_15_" x="29.2" y="46.1" width="197.7" height="169.4"/>
	</defs>
	<clipPath id="SVGID_2_">
		<use xlink:href="#SVGID_15_"  overflow="visible"/>
	</clipPath>
	<path clip-path="url(#SVGID_2_)" d="M212.3,56.7c-0.8,0.1-1.6,0.2-2.4,0.4c-15.5,3.5-29.8,9-43.3,15.7
		c-13.4,6.7-25.7,14.5-37.2,23.1c-0.3,0.2-0.6,0.4-1,0.5c3.9-10.8,9.3-21,16.7-30.2c-0.2,0.1-0.4,0.2-0.6,0.3
		c-0.2,0.1-0.4,0.3-0.6,0.4c-6.6,4.9-11,11.1-13.9,18.2c-1.6,3.9-2.6,8-3.2,12.2c-0.1,0.5-0.4,1.1-0.9,1.4
		c-18.8,16.3-36.2,33.7-51.4,52.7c-1.1,1.4-2.1,2.7-3.2,4.1c-0.2,0.2-0.4,0.5-0.9,0.6c0.6-2.4,1.1-4.8,1.7-7.1
		c3.1-11.7,7.1-23.1,12.3-34c5.6-12,12.5-23.3,21.9-33.1c6.3-6.5,13.5-12.2,22.4-16.1c6.3-2.7,13.1-4.4,20.6-4.7
		c0.5,0,1.1-0.3,1.5-0.6c7.1-6.1,15.3-10.8,25.5-13.2c5.2-1.2,10.7-1.5,16.5-0.7c0.4,0.1,0.8,0.2,1.3,0.3c-1.1,1.7-2.9,3-3.2,5.3
		c0.5-0.3,0.7-0.4,0.9-0.5c0.6-0.4,1.3-0.8,1.9-1.3c3.5-2.4,7.4-3.2,12.3-2.1c6.5,1.4,13,2.9,19.3,5.2c0.6,0.2,1.2,0.5,1.8,1
		c-0.4,0-0.8,0-1.2,0.1c-4.3,0.6-8.6,1.2-12.9,1.8C212.6,56.5,212.4,56.6,212.3,56.7L212.3,56.7z"/>
	<path clip-path="url(#SVGID_2_)" d="M88,172.7c-1.6,2.6-4,4.4-6.7,6.1c-5.8,3.6-12.8,3.9-20.4,2.8c0.4-0.5,0.8-1.1,1.2-1.6
		c4.9-6.5,9.7-13,14.6-19.5c0.2-0.3,0.7-0.6,1-0.5c4.2,0.6,8.1,0,12-0.7c2.2-0.4,4.3-0.9,6.9-1.4c-0.2,0.7-0.2,1.4-0.5,1.7
		c-0.8,0.9-1.5,1.9-2.6,2.6c-3.2,2-6.5,3.8-9.8,5.7c-2.1,1.2-4.2,2.3-6.3,3.5c-0.6,0.4-1.2,0.8-1.7,1.3c-0.4,0.4-0.5,1-0.7,1.5
		c0.7,0.2,1.4,0.5,2,0.5c3-0.1,5.7-0.8,8.4-1.7c0.8-0.3,1.6-0.4,2.5-0.6C87.7,172.4,87.9,172.6,88,172.7"/>
	<path clip-path="url(#SVGID_2_)" d="M46.3,187.1c1.5-4.7,2.2-9.7,1.8-14.8c-0.2-3-0.7-6-1.1-9c-0.1-1-0.1-2-0.1-3
		c0.2,0,0.3,0,0.5-0.1c0.4,0.5,0.8,1.1,1.1,1.6c1,2.2,2,4.3,3,6.5c0.4,0.8,1,1.6,1.5,2.5c0.2,0,0.3,0,0.4,0c0.1-0.4,0.3-0.8,0.2-1.2
		c-0.3-2-0.4-4.1-0.9-6.1c-1.3-5.5-2.5-11-2-16.4c0.2-2,0.6-4,1.9-5.6c0.4-0.5,0.9-0.9,1.5-1.2c-1.6,5.1,0.9,9.6,4.5,14
		c0.5,0.6,1.1,1.1,1.7,1.5c0.8,0.5,1.5,0.4,1.7-0.3c0.2-0.6,0.2-1.3,0.2-1.9c-0.4-10.7,2.9-20,10.7-27.6c1.4-1.3,3-2.5,4.5-3.7
		c0.1,0.1,0.2,0.1,0.3,0.2c-0.3,0.6-0.7,1.2-1,1.8c-3,5.5-4.5,11.6-5.6,17.8c-0.9,5.1-1.4,10.2-2.2,15.3c-0.1,0.4-0.2,0.9-0.5,1.2
		c-7.2,9.3-14.5,18.7-21.7,28C46.7,186.7,46.5,186.9,46.3,187.1"/>
	<path clip-path="url(#SVGID_2_)" d="M167.6,73.6c-6.6,3.9-12.9,8.1-19,12.6c-12.4,9-23.7,18.8-34.5,29.2
		c-9.7,9.4-18.2,19.6-26.7,29.8c-14.5,17.4-27.9,35.5-40.4,54.1c-2.5,3.7-4.9,7.5-7.4,11.2c-1.1,1.6-2.5,3-4.4,3.9
		c-1.7,0.9-3.7,1.3-6.1,0.6c1.1-1.8,2.2-3.5,3.3-5.2c8.7-13.4,18-26.4,27.8-39.2c14.3-18.5,29.4-36.5,46.1-53.3
		c10.1-10.1,21.4-19.3,33.4-27.8c7.8-5.5,15.9-10.6,24.8-14.8c0.8-0.4,1.7-0.8,2.5-1.1C167.3,73.7,167.5,73.7,167.6,73.6"/>
	<path clip-path="url(#SVGID_2_)" d="M212.2,56.7c0.4,0,0.8,0,1.2-0.1c3.9-0.5,7.8-1,11.7-1.5c0.5-0.1,1,0,1.7,0
		c-2.3,1.3-4.3,2.5-6.3,3.7c-9.2,5.8-17.5,12.4-25.7,19.1c-17.2,14-33.5,28.9-49.9,43.6c-1.9,1.7-3.8,3.4-5.7,5.1
		c-2.4,2.2-5.6,3.1-9.3,3.1c-2.1,0-4.3-0.3-6.4-0.4c-0.5,0-1,0.2-1.4,0.3c0.4,0.4,0.7,1,1.1,1.2c1.8,0.7,3.7,1.4,5.6,2
		c1.8,0.5,3.7,0.8,5.8,1.3c-15.8,12.7-34.8,20.5-56.6,24.6c0.1-0.2,0.3-0.5,0.4-0.7c12.1-15.8,25.1-30.9,39.6-44.9
		c14.5-14,30.2-26.8,48.3-37.4c12.3-7.3,25.3-13.4,40-17.3c1.6-0.4,3.3-0.8,4.9-1.2C211.6,57,211.9,56.8,212.2,56.7L212.2,56.7z"/>
</g>
</svg>
