<?xml version="1.0" encoding="utf-8"?>
<!-- Generator: Adobe Illustrator 18.0.0, SVG Export Plug-In . SVG Version: 6.00 Build 0)  -->
<!DOCTYPE svg PUBLIC "-//W3C//DTD SVG 1.1//EN" "http://www.w3.org/Graphics/SVG/1.1/DTD/svg11.dtd">
<svg version="1.1" id="Ebene_1" xmlns="http://www.w3.org/2000/svg" xmlns:xlink="http://www.w3.org/1999/xlink" x="0px" y="0px"
	 viewBox="0 0 256 256" enable-background="new 0 0 256 256" xml:space="preserve">
<g>
	<path stroke="#FFFFFF" stroke-width="6.2846" stroke-miterlimit="10" d="M222.7,97.9c-26.9-25.3-53.7-50.7-80.6-76
		c-7.9-7.5-20.2-7.5-28.2-0.1C86.8,46.8,59.7,71.9,32.6,96.9c-15.9,14.7-15.7,39.8,0.3,54.3c26.8,24.1,53.6,48.2,80.3,72.4
		c7.8,7,19.6,7.1,27.5,0.1c27-23.8,54-47.7,81.1-71.5C238.1,137.9,238.5,112.7,222.7,97.9"/>
	<path stroke="#FFFFFF" stroke-width="3.7959" stroke-miterlimit="10" d="M222.7,97.9c-26.9-25.3-53.7-50.7-80.6-76
		c-7.9-7.5-20.2-7.5-28.2-0.1C86.8,46.8,59.7,71.9,32.6,96.9c-15.9,14.7-15.7,39.8,0.3,54.3c26.8,24.1,53.6,48.2,80.3,72.4
		c7.8,7,19.6,7.1,27.5,0.1c27-23.8,54-47.7,81.1-71.5C238.1,137.9,238.5,112.7,222.7,97.9z"/>
	<path stroke="#FFFFFF" stroke-width="3.7959" stroke-linecap="round" stroke-linejoin="round" d="M28.3,146.1
		c1.4,1.8,2.9,3.5,4.7,5.1c26.8,24.1,53.6,48.2,80.3,72.4c3.8,3.4,7.6,5,12.7,5.3c0-8.7,0.1-17.4,0.1-26.1c0-3.9-1.2-6.4-4.4-8.7
		c-19.6-14.3-39.2-28.7-58.9-43C52.8,143.6,39.8,141.8,28.3,146.1z"/>
	<path fill="#FFFFFF" stroke="#030304" stroke-width="5.9072" stroke-miterlimit="10" d="M188.1,131c-16.9-32.8-33.7-65.6-50.6-98.4
		c-3.7-7.3-14.1-7.3-17.9-0.1C102.4,65.1,85.2,97.7,68,130.4c-3.5,6.7-1.6,14.9,4.5,19.3c12.5,9.1,25,18.3,37.6,27.4
		c10.6,7.7,24.9,7.8,35.6,0.2c12.6-9,25.2-18,37.8-27C189.6,145.9,191.5,137.7,188.1,131"/>
	<path stroke="#FFFFFF" stroke-width="3.7959" stroke-linecap="round" stroke-linejoin="round" d="M192,151.6
		c-19.8,14.1-39.5,28.3-59.3,42.4c-3.2,2.3-4.5,4.8-4.5,8.7c0,8.7-0.1,17.4-0.1,26.1c5.1-0.2,8.9-1.8,12.7-5.1
		c27-23.8,54-47.7,81.1-71.5c1.7-1.5,3.3-3.2,4.7-5C215,142.7,202,144.4,192,151.6z M222.8,97.9c11.3,10.7,14.7,27.3,8.4,41.6
		c-0.9,2.1-2.2,3.1-4.5,3.4c-15.4,2-30.5-5.9-37.5-19.7c-16.8-32.9-33.5-65.8-50.3-98.7l0,0c-1.3-2.5,1.4-4.5,3.4-2.5
		C169,47.2,195.9,72.6,222.8,97.9z M32.6,96.9c-11.4,10.6-15,27.2-8.8,41.5c0.9,2.2,2.2,3.1,4.5,3.4c15.4,2.2,30.5-5.6,37.7-19.4
		c17.1-32.7,34.2-65.5,51.3-98.2c1.3-2.5-1.3-4.5-3.4-2.6C86.8,46.8,59.7,71.9,32.6,96.9z"/>
</g>
</svg>
