<?xml version="1.0" encoding="utf-8"?>
<!-- Generator: Adobe Illustrator 18.0.0, SVG Export Plug-In . SVG Version: 6.00 Build 0)  -->
<!DOCTYPE svg PUBLIC "-//W3C//DTD SVG 1.1//EN" "http://www.w3.org/Graphics/SVG/1.1/DTD/svg11.dtd">
<svg version="1.1" id="Ebene_1" xmlns="http://www.w3.org/2000/svg" xmlns:xlink="http://www.w3.org/1999/xlink" x="0px" y="0px"
	 viewBox="0 0 256 256" enable-background="new 0 0 256 256" xml:space="preserve">
<g>
	<path d="M120.2,187.4c-0.3-12.2,0.7-23.7,3.7-35.1c2.3-9,5.9-17.5,11.5-25c0.6-0.8,1.2-1.8,1.5-2.8c6-17.9,16.8-32.4,30.7-44.8
		c2.8-2.5,5.3-5.4,7.5-8.6c-10.3,3.3-18.5,9.6-25.4,17.8c-6.9,8.2-10.9,18-14.8,27.9c-0.4-0.1-0.8-0.1-1.2-0.2
		c0.4-6.1,0.2-12.2,1.2-18.2c4.1-25.1,18.1-38.8,44-43.2c6.1-1,12.3-1.4,18.4-2.2c2.5-0.3,3.8,0.3,4.1,3c2,17.6,0.7,34.8-7.6,50.8
		c-5.1,9.9-13.7,16.6-23.3,22c-6,3.4-12.6,4.8-19.3,5.6c-0.6,0.1-1.3,0.3-1.8,0c-4.7-2.3-6.3,1.2-8,4.3
		c-7.5,14.2-10.7,29.1-8.3,45.2c0.4,2.8,1.2,4.1,4.5,4.5c6,0.8,11.9,2.4,17.7,4.1c2.7,0.8,5.3,2.3,7.6,3.9c6,4.3,5.4,9.9-1.3,12.8
		c-3.1,1.3-6.6,2.3-9.9,2.7c-20.3,2.6-40.6,3-60.8-1c-2.6-0.5-5.2-1.7-7.5-3.1c-3.6-2.3-4.2-6-1.3-9.1c1.9-2,4.3-4.1,6.9-4.9
		c7.6-2.3,15.4-4,23.1-5.7C114.5,187.6,117.2,187.6,120.2,187.4z"/>
	<path d="M88,105.2c1.5,1.4,3,2.9,4.6,4.2c6.2,5,12.6,9.8,18.6,15.1c4.3,3.7,8.1,8,12,12.2c2.9,3.1,1.8,7.2-2.1,9.1
		c-8,3.9-16.2,2.8-24.3,0.5c-10.4-3-17.9-9.5-22.6-19.2c-4.2-8.7-6.6-17.8-7.1-27.5c-0.1-1.6,0.3-3.3,0.4-4.9
		c31.7-2.6,49.4,8.7,56.1,35.7c-9.6-11.6-20.9-20.6-34.7-26.3C88.5,104.6,88.2,104.9,88,105.2z"/>
</g>
</svg>
