<?xml version="1.0" encoding="utf-8"?>
<!-- Generator: Adobe Illustrator 18.0.0, SVG Export Plug-In . SVG Version: 6.00 Build 0)  -->
<!DOCTYPE svg PUBLIC "-//W3C//DTD SVG 1.1//EN" "http://www.w3.org/Graphics/SVG/1.1/DTD/svg11.dtd">
<svg version="1.1" id="Ebene_1" xmlns="http://www.w3.org/2000/svg" xmlns:xlink="http://www.w3.org/1999/xlink" x="0px" y="0px"
	 viewBox="0 0 256 256" enable-background="new 0 0 256 256" xml:space="preserve">
<path d="M98.1,84.6c-4.2-2.9-11.1,1.5-11-7c0.1-10.4-0.1-10.8,10.5-10.8c19.8,0,39.6,0,59.5,0c11.8,0,11.8,0,11.5,11.7
	c0,1.2-0.3,2.4-0.5,4c-3.3,0.4-6.4,0.7-10,1.2c0,11.6-1.9,23.3,0.5,34.2c2.3,10.3,8.9,19.7,13.8,29.3c9.2,18.1,18.6,36,27.9,54.1
	c4.5,8.7,2.2,12.5-7.7,12.6c-43.1,0.1-86.2,0.1-129.3,0c-9.6,0-12-4.1-7.6-12.7C67.9,177.4,80,153.5,92.6,130
	c4-7.4,6.2-14.8,5.6-23.3C97.7,99.3,98.1,91.9,98.1,84.6z M185.2,200.8c-12.9-24.9-25.1-48.3-37-71.9c-2.1-4.2-3.2-9.3-3.4-14
	c-0.5-10.3-0.2-20.6-0.2-30.7c-11.7,0-22.2,0-33.4,0c0,9.3-0.3,18.2,0.1,27c0.4,7.7-1.6,14.4-5.2,21.2c-10.7,20-21,40.4-31.4,60.6
	c-1.2,2.3-2.1,4.6-3.6,7.9c36.2,0,71.1,0,105.9,0C179.3,200.8,181.4,200.8,185.2,200.8z"/>
<path d="M170.7,191.7c-29,0-56.5,0-85.5,0c6.9-13.3,13.3-25.9,20.2-38.3c0.7-1.3,3.8-1.9,5.8-1.9c11.4-0.1,22.7-0.2,34.1,0.2
	c2.2,0.1,5.3,1.7,6.3,3.5C158,166.8,164,178.7,170.7,191.7z"/>
<circle cx="120.1" cy="169.1" r="4.5"/>
<circle cx="144.7" cy="175.4" r="6.3"/>
<circle cx="132.6" cy="135.4" r="5.3"/>
<circle cx="125.8" cy="102.7" r="7.9"/>
<circle cx="133.6" cy="46.1" r="10.5"/>
</svg>
