<?xml version="1.0" encoding="utf-8"?>
<!-- Generator: Adobe Illustrator 18.0.0, SVG Export Plug-In . SVG Version: 6.00 Build 0)  -->
<!DOCTYPE svg PUBLIC "-//W3C//DTD SVG 1.1//EN" "http://www.w3.org/Graphics/SVG/1.1/DTD/svg11.dtd">
<svg version="1.1" id="Ebene_1" xmlns="http://www.w3.org/2000/svg" xmlns:xlink="http://www.w3.org/1999/xlink" x="0px" y="0px"
	 viewBox="0 0 256 256" enable-background="new 0 0 256 256" xml:space="preserve">
<g>
	<g>
		<path d="M187.1,203.3h-3.5V63.9h3.5c2.9,0,5.3-2.4,5.3-5.3c0-2.9-2.4-5.3-5.3-5.3H68.9c-2.9,0-5.3,2.4-5.3,5.3
			c0,2.9,2.4,5.3,5.3,5.3h3.5V101c-4,0.4-7.2,3.8-7.2,7.9c0,4.1,3.2,7.5,7.2,7.9v29.1c-4,0.4-7.2,3.8-7.2,7.9c0,4.1,3.2,7.5,7.2,7.9
			v41.6h-3.5c-2.9,0-5.3,2.4-5.3,5.3c0,2.9,2.4,5.3,5.3,5.3h118.2c2.9,0,5.3-2.4,5.3-5.3C192.4,205.7,190,203.3,187.1,203.3z
			 M79.9,70.5l23.2,0v27.8H79.9V70.5z M103.1,193.4H79.9v-27.8h23.2V193.4z M169.9,159.2H73.6c-0.1,0-0.2-0.1-0.4-0.1
			c-2.9,0-5.3-2.4-5.3-5.3c0-2.7,2-4.9,4.5-5.3v0.1h97.5c2.9,0,5.3,2.4,5.3,5.3S172.8,159.2,169.9,159.2z M79.9,145.7V118h23.2v27.8
			H79.9z M169.9,114.2H72.8c-2.8-0.2-4.9-2.5-4.9-5.3c0-2.8,2.1-5,4.9-5.3h97.1c2.9,0,5.3,2.4,5.3,5.3
			C175.2,111.8,172.8,114.2,169.9,114.2z"/>
	</g>
</g>
</svg>
